<svg xmlns="http://www.w3.org/2000/svg" viewBox="0 0 24 24"><path d="M20.2 0H5.3C3.5 0 2.1 1.5 2.1 3.2v1.5H.6v1.1h1.5v5.3H.6v1.1h1.5v5.3H.6v1.1h1.5v2c0 1.7 1.5 3.2 3.2 3.2h14.9c1.8 0 3.2-1.5 3.2-3.2V3.1c0-1.6-1.5-3.1-3.2-3.1zm-13 22.6H5.3c-1.1 0-2-.9-2-1.9v-1.9h1.5v-1H3.4v-5.3h1.5v-1.1H3.4V5.8h1.5V4.7H3.4V3.2c0-1.1.9-1.9 2-1.9h1.9v21.4h-.1zm14.9-1.9c0 1.1-.9 1.9-2 1.9H8.4V1.3h11.8c1.1 0 2 .9 2 1.9v17.5h-.1z"/><path d="M18.1 9.1c-.1 0-.3 0-.5.1l-4.4 4.2-1.5-1.3c-.3-.2-.6-.2-.8.1-.2.2-.1.6.1.8l1.8 1.6s.1.1.2.1h.2c.2 0 .3-.1.5-.1l4.8-4.5c.1-.1.2-.3.2-.5s-.1-.3-.2-.3c0-.1-.1-.2-.4-.2z"/></svg>