<svg xmlns="http://www.w3.org/2000/svg" viewBox="0 0 24 24"><path d="M23.4.8c-.1-.2-.2-.3-.4-.3H1C.9.5.8.6.7.8l-.7 5c0 .1 0 .2.1.2.1.1.2.1.2.1H1v17.1c0 .2.2.3.4.3h21c.2 0 .4-.2.4-.3V6.1h.7l.4-.1c.1 0 .1-.1.1-.3L23.4.8zM11.6 22.9H7V12.8H11.7l-.1 10.1zM7.1 12.1c.2-1.1.7-2.1 1.3-2.7l2.7 2.7h-4zm4.5-.5L8.9 8.9c.8-.6 1.8-1 2.6-1l.1 3.7zM17 22.9h-4.7V12.8H17v10.1zm-4.7-11.1V7.9c1 .1 1.9.5 2.7 1.1l-2.7 2.8zm3.3-2.4c.6.7 1.1 1.6 1.2 2.6v.1h-4l2.8-2.7zm6.6 13.5h-4.5V12.8c0-3.1-2.6-5.7-5.7-5.7s-5.7 2.6-5.7 5.7v10.1H1.8V6.1h20.3c.1 0 .1 16.8.1 16.8zM.8 5.4l.6-4.2h21.4l.5 4.2H.8z" fill-rule="evenodd" clip-rule="evenodd"/></svg>